HIERARCHY
ROOT Hips
{
 OFFSET 0.000000 0.000000 0.000000
 CHANNELS 6 Xposition Yposition Zposition Yrotation Xrotation Zrotation
 JOINT Chest
 {
  OFFSET 0.000000 9.585900 0.002600
  CHANNELS 3 Yrotation Xrotation Zrotation
  JOINT Chest2
  {
   OFFSET 0.000000 9.601200 -0.005300
   CHANNELS 3 Yrotation Xrotation Zrotation
   JOINT Chest3
   {
    OFFSET 0.000000 9.561800 0.000000
    CHANNELS 3 Yrotation Xrotation Zrotation
    JOINT Chest4
    {
     OFFSET 0.000000 9.552100 0.000000
     CHANNELS 3 Yrotation Xrotation Zrotation
     JOINT Neck
     {
      OFFSET 0.000000 14.453000 0.000000
      CHANNELS 3 Yrotation Xrotation Zrotation
      JOINT Head
      {
       OFFSET 0.000000 8.936500 -0.011300
       CHANNELS 3 Yrotation Xrotation Zrotation
       End Site
       {
        OFFSET 0.000000 17.073600 -0.006000
       }
      }
     }
     JOINT RightCollar
     {
      OFFSET -2.921100 9.558500 0.000000
      CHANNELS 3 Yrotation Xrotation Zrotation
      JOINT RightShoulder
      {
       OFFSET -13.519700 0.000000 0.000000
       CHANNELS 3 Yrotation Xrotation Zrotation
       JOINT RightElbow
       {
        OFFSET 0.000000 -29.696600 0.000000
        CHANNELS 3 Yrotation Xrotation Zrotation
        JOINT RightWrist
        {
         OFFSET 0.000000 -24.004700 0.000000
         CHANNELS 3 Yrotation Xrotation Zrotation
         End Site
         {
          OFFSET 0.000000 -17.728500 0.000000
         }
        }
       }
      }
     }
     JOINT LeftCollar
     {
      OFFSET 2.921100 9.558500 0.000000
      CHANNELS 3 Yrotation Xrotation Zrotation
      JOINT LeftShoulder
      {
       OFFSET 13.519700 0.000000 0.000000
       CHANNELS 3 Yrotation Xrotation Zrotation
       JOINT LeftElbow
       {
        OFFSET 0.000000 -29.696600 0.000000
        CHANNELS 3 Yrotation Xrotation Zrotation
        JOINT LeftWrist
        {
         OFFSET 0.000000 -24.004700 0.000000
         CHANNELS 3 Yrotation Xrotation Zrotation
         End Site
         {
          OFFSET 0.000000 -17.728500 0.000000
         }
        }
       }
      }
     }
    }
   }
  }
 }
 JOINT RightHip
 {
  OFFSET -7.771700 -0.012900 -0.001300
  CHANNELS 3 Yrotation Xrotation Zrotation
  JOINT RightKnee
  {
   OFFSET 0.000000 -40.869800 0.001200
   CHANNELS 3 Yrotation Xrotation Zrotation
   JOINT RightAnkle
   {
    OFFSET 0.000000 -39.717900 0.002100
    CHANNELS 3 Yrotation Xrotation Zrotation
    JOINT RightToe
    {
     OFFSET 0.000000 -4.965400 11.033500
     CHANNELS 3 Yrotation Xrotation Zrotation
     End Site
     {
      OFFSET 0.000000 -1.423100 5.872300
     }
    }
   }
  }
 }
 JOINT LeftHip
 {
  OFFSET 7.771700 -0.012900 -0.001300
  CHANNELS 3 Yrotation Xrotation Zrotation
  JOINT LeftKnee
  {
   OFFSET 0.000000 -40.869800 0.001200
   CHANNELS 3 Yrotation Xrotation Zrotation
   JOINT LeftAnkle
   {
    OFFSET 0.000000 -39.717900 0.002100
    CHANNELS 3 Yrotation Xrotation Zrotation
    JOINT LeftToe
    {
     OFFSET 0.000000 -4.965400 11.033500
     CHANNELS 3 Yrotation Xrotation Zrotation
     End Site
     {
      OFFSET 0.000000 -1.423100 5.872300
     }
    }
   }
  }
 }
}
MOTION
Frames: 8
Frame Time: 0.008333
0.000000 85.388000 0.000000 0.000000 -5.767877 0.000000 0.000000 11.653817 0.000000 0.000000 -5.885947 0.000000 0.000000 -0.000000 0.000000 0.000000 -0.000000 0.000000 0.000000 12.528835 0.000000 0.000000 0.711642 0.000000 0.000000 -0.000000 0.000000 0.000000 0.000000 -90.000000 0.000000 -2.309062 0.000000 0.000000 2.309062 0.000000 0.000000 -0.000000 0.000000 0.000000 -0.000000 90.000000 0.000000 -2.309062 0.000000 0.000000 2.309062 0.000000 0.000000 8.520406 0.000000 0.000000 1.905762 0.000000 -0.000000 -4.658285 0.000000 0.000000 -0.000000 0.000000 0.000000 8.520406 0.000000 0.000000 1.905762 0.000000 -0.000000 -4.658285 0.000000 0.000000 -0.000000 0.000000
30.180602 49.848149 64.225391 172.310192 -31.324821 -6.828021 7.317438 23.915783 8.136476 0.946043 3.889904 0.905194 1.578670 6.352408 1.516940 5.748224 19.889545 5.567334 -2.466356 15.907321 1.846654 -5.249674 -6.123908 4.318212 -0.676112 -3.424731 -7.182708 7.217893 -17.162134 -10.133573 -147.666146 -50.040031 153.804667 -5.337257 -7.043463 46.879471 -14.619677 -2.985418 1.251949 2.698960 -21.648779 2.338614 118.302698 -44.398525 -142.619229 35.955227 13.826709 -51.035434 -2.379443 -48.895093 11.226255 -117.892250 83.559922 -105.236977 0.288731 -13.486878 -6.164311 -0.223059 1.085561 -0.081817 -8.723855 -53.169150 17.152561 -155.789094 79.928148 -162.967919 1.903319 -18.383416 7.704801 -0.336825 -0.655662 -0.181673
30.179774 49.849981 64.226472 172.288369 -31.345773 -6.821689 7.367245 24.010494 8.175642 0.964173 3.955436 0.920103 1.589740 6.373740 1.520027 5.785146 19.954173 5.585608 -2.482344 15.952763 1.861103 -5.282073 -6.037779 4.348051 -0.685361 -3.429808 -7.176584 7.361231 -17.320280 -10.085840 -147.770790 -50.332808 153.604354 -5.313194 -7.034820 46.624468 -14.797447 -2.940633 1.285721 2.595189 -21.769848 2.300804 118.960740 -44.835350 -142.542881 35.744376 13.755768 -51.044831 -2.330693 -48.880805 11.227974 -117.785512 83.557997 -105.131415 0.289852 -13.475790 -6.156121 -0.237613 1.089161 -0.075755 -8.687583 -53.151299 17.122386 -155.941550 79.938391 -163.093846 1.900080 -18.382673 7.696125 -0.338178 -0.652696 -0.184110
30.178259 49.852992 64.227675 172.239884 -31.375134 -6.799106 7.433510 24.106625 8.211677 0.981593 4.016143 0.933864 1.598444 6.393534 1.523971 5.817428 20.013709 5.604201 -2.501929 16.000233 1.875509 -5.320900 -5.947679 4.378997 -0.694229 -3.438963 -7.173979 7.504605 -17.460660 -10.032739 -147.881755 -50.639689 153.412163 -5.261841 -7.016766 46.386885 -14.956797 -2.904504 1.309861 2.506399 -21.870108 2.263617 119.817085 -45.353907 -142.596020 35.557121 13.609710 -51.078449 -2.247464 -48.862932 11.218479 -117.666595 83.554284 -105.005765 0.285715 -13.462025 -6.142730 -0.244469 1.092450 -0.076571 -8.625067 -53.125074 17.096444 -156.019963 79.947158 -163.155109 1.898526 -18.368057 7.691556 -0.330658 -0.661843 -0.180989
30.174471 49.855674 64.231487 172.220274 -31.387474 -6.781614 7.456406 24.153143 8.219755 0.989746 4.077709 0.951950 1.611554 6.437223 1.533994 5.841797 20.068257 5.620488 -2.524440 16.046155 1.888430 -5.364658 -5.860285 4.408300 -0.696935 -3.447083 -7.169044 7.640663 -17.591531 -9.982136 -148.002748 -50.960577 153.233403 -5.179753 -6.987716 46.153680 -15.091732 -2.876616 1.324600 2.446198 -21.951256 2.221766 120.798051 -45.915048 -142.759299 35.408419 13.418163 -51.079949 -2.178636 -48.859318 11.194648 -117.560196 83.554535 -104.897684 0.282585 -13.449549 -6.118340 -0.257618 1.100105 -0.089359 -8.595967 -53.114048 17.068427 -156.084679 79.961299 -163.211066 1.889855 -18.347448 7.687222 -0.304195 -0.666849 -0.176912
30.170990 49.858073 64.239225 172.181529 -31.381272 -6.760834 7.493566 24.177747 8.231383 0.990990 4.127641 0.968815 1.621233 6.475646 1.542538 5.857114 20.117020 5.633595 -2.549938 16.089598 1.897914 -5.413015 -5.777549 4.432380 -0.690796 -3.445632 -7.156459 7.772272 -17.719388 -9.938406 -148.161213 -51.302422 153.087630 -5.077709 -6.947029 45.920840 -15.197107 -2.845147 1.327905 2.412843 -22.023557 2.168749 121.786236 -46.490105 -142.978300 35.294318 13.217977 -51.032505 -2.109438 -48.878469 11.191474 -117.372656 83.560281 -104.726021 0.286326 -13.420889 -6.069880 -0.295475 1.099909 -0.106411 -8.567794 -53.121503 17.065172 -156.086405 79.974205 -163.211973 1.882827 -18.325995 7.687027 -0.311110 -0.660601 -0.163787
30.169573 49.864363 64.244648 172.167179 -31.396498 -6.765228 7.513780 24.284137 8.283671 1.000747 4.073366 0.943833 1.626488 6.538148 1.563487 5.866508 20.157917 5.645223 -2.578104 16.131128 1.902279 -5.464659 -5.698589 4.448106 -0.682610 -3.426733 -7.137209 7.906601 -17.845793 -9.900909 -148.383280 -51.663614 152.993838 -4.963308 -6.898542 45.691948 -15.274321 -2.799349 1.319586 2.395268 -22.094943 2.104577 122.671561 -47.050161 -143.186914 35.212125 13.046536 -50.962658 -2.042019 -48.868666 11.192129 -117.134810 83.545657 -104.469812 0.257879 -13.405243 -6.055552 -0.277342 1.102943 -0.098042 -8.571217 -53.102880 17.080273 -156.077672 79.985052 -163.204999 1.881910 -18.304098 7.688677 -0.314005 -0.664812 -0.160449
30.165792 49.871396 64.251457 172.152149 -31.402318 -6.759033 7.522634 24.341922 8.307826 1.008895 4.055690 0.932682 1.629833 6.586097 1.580161 5.872486 20.190315 5.655525 -2.607551 16.169134 1.901406 -5.516904 -5.626368 4.454695 -0.677131 -3.391372 -7.113178 8.037060 -17.968896 -9.866146 -148.668863 -52.036661 152.960147 -4.840045 -6.853048 45.470801 -15.331585 -2.742420 1.304648 2.385975 -22.165662 2.037423 123.375790 -47.556703 -143.323713 35.143829 12.926613 -50.891492 -1.998391 -48.863461 11.188199 -116.918216 83.541286 -104.255102 0.259270 -13.384102 -6.039532 -0.277922 1.104345 -0.105937 -8.570312 -53.093375 17.083416 -156.071461 80.000090 -163.204403 1.877472 -18.276138 7.690908 -0.311139 -0.671694 -0.158208
